<svg width="897" height="606" viewBox="0 0 897 606" fill="none" xmlns="http://www.w3.org/2000/svg">
<path d="M896 604.8H0V389.77H10.8358H217.171L220.631 395.148L221.724 396.88C234.764 418.886 252.244 437.929 273.049 452.792C293.855 467.656 317.527 478.012 342.556 483.202C375.522 490.113 409.752 487.816 441.502 476.562C473.251 465.309 501.299 445.532 522.576 419.395C526.673 414.29 530.315 408.73 534.231 402.896L539.785 394.692L542.972 390.044H885.164H896.091V605.165L896 604.8ZM21.0341 583.379H874.966V410.188H553.99L551.805 413.47C547.798 419.486 543.701 425.593 539.057 431.7C517.417 458.728 489.196 479.728 457.106 492.682C412.303 510.847 362.528 512.576 316.575 497.565C270.622 482.553 231.447 451.767 205.971 410.644H21.0341V583.379Z" fill="black"/>
<path d="M217.08 215.759H10.8358L0 215.121V0H896V215.121H884.982H542.79L539.239 209.743L538.237 208.285C524.142 183.967 504.586 163.268 481.116 147.827C457.646 132.385 430.908 122.625 403.018 119.319C381.58 116.315 359.768 117.398 338.732 122.51C294.021 132.671 254.759 159.286 228.735 197.073C226.823 199.807 224.911 202.724 222.998 206.188L220.176 210.655L217.08 215.759ZM379.525 97.2602C388.422 97.2629 397.308 97.9026 406.114 99.1744C436.374 102.913 465.406 113.425 491.053 129.931C516.7 146.437 538.304 168.513 554.263 194.52H874.966V21.3298H21.0341V194.52H205.607C207.519 191.512 209.431 188.504 211.525 185.405C240.475 143.361 284.159 113.752 333.906 102.456C348.855 98.9222 364.165 97.1479 379.525 97.1691V97.2602Z" fill="black"/>
<path d="M380.163 507.631C344.606 507.644 309.655 498.41 278.736 480.832C247.817 463.255 221.99 437.938 203.785 407.363L203.239 406.451L202.055 404.537L198.413 397.154C195.59 391.593 192.767 385.851 190.218 379.835C179.331 353.422 174.209 324.985 175.193 296.43C176.127 263.423 185.065 231.139 201.236 202.36V201.539L202.237 199.625L204.969 195.341C206.972 192.151 209.067 188.869 211.343 185.679C240.292 143.635 283.977 114.025 333.724 102.73C357.324 97.0037 381.793 95.7975 405.841 99.1746C436.78 102.964 466.435 113.821 492.517 130.906C518.599 147.991 540.41 170.847 556.267 197.711L557.906 200.537L568.832 222.869C569.175 223.613 569.479 224.373 569.743 225.148L573.658 235.357L465.119 279.293L460.566 270.178L459.655 268.172C451.43 248.994 436.575 233.426 417.814 224.322C399.053 215.217 377.642 213.187 357.507 218.603C337.372 224.018 319.861 236.517 308.185 253.808C296.508 271.099 291.448 292.023 293.932 312.746C295.463 327.967 301.272 342.443 310.686 354.494C319.56 366.83 331.623 376.514 345.581 382.504C359.538 388.494 374.861 390.565 389.906 388.494C401.884 387.346 413.467 383.595 423.847 377.502C434.227 371.409 443.154 363.122 450.003 353.218C452.732 349.207 455.167 345.003 457.288 340.639C458.472 338.36 459.655 336.081 460.93 333.802L465.483 325.69L573.658 369.443L570.016 379.105C566.499 387.94 562.392 396.528 557.724 404.811L557.086 405.813L551.805 413.652C547.798 419.669 543.701 425.776 539.057 431.883C517.417 458.911 489.196 479.911 457.106 492.864C437.377 500.891 416.516 505.781 395.278 507.358C390.118 507.54 385.08 507.631 380.163 507.631ZM220.631 394.51L221.724 396.242C234.763 418.249 252.244 437.291 273.049 452.155C293.855 467.018 317.527 477.375 342.556 482.564C375.522 489.475 409.752 487.178 441.502 475.925C473.251 464.671 501.299 444.894 522.576 418.757C526.673 413.652 530.315 408.092 534.231 402.258L539.421 394.601C541.606 390.5 543.974 386.033 546.159 381.475L475.044 352.671C472.704 357.299 470.026 361.747 467.031 365.979C458.471 378.291 447.331 388.584 434.388 396.141C421.444 403.698 407.01 408.336 392.091 409.733C373.504 412.181 354.602 409.58 337.365 402.203C320.127 394.826 305.189 382.944 294.114 367.802C282.269 352.557 275.005 334.251 273.171 315.025C270.224 289.992 276.13 264.718 289.863 243.591C303.596 222.465 324.288 206.821 348.345 199.379C372.401 191.937 398.302 193.166 421.548 202.852C444.793 212.539 463.915 230.071 475.59 252.403L546.341 223.872L539.694 210.381L538.693 208.923C524.598 184.605 505.041 163.906 481.571 148.465C458.102 133.023 431.363 123.263 403.473 119.957C382.035 116.953 360.223 118.036 339.187 123.148C294.476 133.31 255.214 159.924 229.19 197.711C227.278 200.446 225.366 203.362 223.454 206.826L220.995 210.746L219.902 212.842C205.371 238.692 197.34 267.692 196.501 297.341C195.527 322.681 199.934 347.939 209.431 371.449C211.616 376.735 214.257 381.931 216.989 387.4L220.631 394.51Z" fill="black"/>
<path d="M378.797 410.188C362.328 410.298 346.07 406.487 331.362 399.07C316.654 391.653 303.918 380.842 294.205 367.529C282.376 352.37 275.082 334.165 273.171 315.025C270.227 289.351 276.591 263.473 291.105 242.102C305.618 220.731 327.316 205.288 352.247 198.585C377.178 191.882 403.685 194.364 426.941 205.58C450.198 216.796 468.657 236 478.959 259.695V260.515L479.961 262.885L481.509 267.99C482.784 272 484.059 276.193 484.969 280.66C489.24 300.885 487.531 321.917 480.052 341.185L479.597 343.009L478.959 344.102C477.776 346.199 476.683 348.295 475.59 350.392C472.944 355.689 469.9 360.778 466.485 365.614C457.925 377.926 446.785 388.219 433.842 395.776C420.898 403.333 406.464 407.971 391.545 409.368C387.312 409.852 383.057 410.126 378.797 410.188ZM380.345 215.668C372.059 215.673 363.814 216.838 355.85 219.132C336.113 224.846 319.049 237.399 307.706 254.548C296.363 271.697 291.481 292.325 293.932 312.746C295.463 327.967 301.273 342.442 310.686 354.494C319.56 366.83 331.624 376.513 345.581 382.503C359.538 388.494 374.861 390.565 389.906 388.494C401.884 387.346 413.467 383.595 423.847 377.502C434.227 371.409 443.154 363.121 450.003 353.218C452.732 349.207 455.167 345.003 457.288 340.639L460.293 334.987V333.802C466.366 318.291 467.789 301.344 464.39 285.035C463.662 281.571 462.569 278.108 461.385 274.37L460.02 269.813L459.2 268.172C452.621 252.655 441.649 239.407 427.636 230.06C413.623 220.714 397.183 215.679 380.345 215.577V215.668Z" fill="black"/>
<path d="M896 205.003H874.966V399.888H896V205.003Z" fill="black"/>
<path d="M21.0341 205.003H0V399.888H21.0341V205.003Z" fill="black"/>
</svg>
